<?xml version="1.0" encoding="UTF-8" standalone="no"?>
<!-- Created with Inkscape (http://www.inkscape.org/) -->

<svg
   xmlns:dc="http://purl.org/dc/elements/1.1/"
   xmlns:cc="http://creativecommons.org/ns#"
   xmlns:rdf="http://www.w3.org/1999/02/22-rdf-syntax-ns#"
   xmlns:svg="http://www.w3.org/2000/svg"
   xmlns="http://www.w3.org/2000/svg"
   xmlns:xlink="http://www.w3.org/1999/xlink"
   xmlns:sodipodi="http://sodipodi.sourceforge.net/DTD/sodipodi-0.dtd"
   xmlns:inkscape="http://www.inkscape.org/namespaces/inkscape"
   width="100"
   height="100"
   viewBox="0 0 26.458333 26.458334"
   version="1.1"
   id="svg8"
   inkscape:version="0.92.4 (f8dce91, 2019-08-02)"
   sodipodi:docname="logo.svg">
  <defs
     id="defs2">
    <linearGradient
       inkscape:collect="always"
       id="linearGradient22">
      <stop
         style="stop-color:#800080;stop-opacity:1"
         offset="0"
         id="stop18" />
      <stop
         id="stop26"
         offset="0.46202621"
         style="stop-color:#b65a98;stop-opacity:1;" />
      <stop
         style="stop-color:#e9afaf;stop-opacity:1"
         offset="1"
         id="stop20" />
    </linearGradient>
    <linearGradient
       inkscape:collect="always"
       xlink:href="#linearGradient22"
       id="linearGradient24"
       x1="13.571429"
       y1="88.928574"
       x2="78.928574"
       y2="5.3571429"
       gradientUnits="userSpaceOnUse"
       gradientTransform="matrix(0.26458333,0,0,0.26458333,0.37465435,270.54166)" />
  </defs>
  <sodipodi:namedview
     id="base"
     pagecolor="#ffffff"
     bordercolor="#666666"
     borderopacity="1.0"
     inkscape:pageopacity="0.0"
     inkscape:pageshadow="2"
     inkscape:zoom="5.6"
     inkscape:cx="52.271709"
     inkscape:cy="56.021787"
     inkscape:document-units="px"
     inkscape:current-layer="layer1"
     showgrid="false"
     units="px"
     inkscape:window-width="1920"
     inkscape:window-height="1011"
     inkscape:window-x="0"
     inkscape:window-y="0"
     inkscape:window-maximized="1" />
  <metadata
     id="metadata5">
    <rdf:RDF>
      <cc:Work
         rdf:about="">
        <dc:format>image/svg+xml</dc:format>
        <dc:type
           rdf:resource="http://purl.org/dc/dcmitype/StillImage" />
        <dc:title></dc:title>
      </cc:Work>
    </rdf:RDF>
  </metadata>
  <g
     inkscape:label="Layer 1"
     inkscape:groupmode="layer"
     id="layer1"
     transform="translate(0,-270.54166)">
    <path
       style="opacity:1;fill:url(#linearGradient24);fill-opacity:1;stroke:none;stroke-width:0.07161127;stroke-miterlimit:4;stroke-dasharray:none;stroke-opacity:1"
       d="m 13.603821,270.54166 a 13.229166,13.229166 0 0 0 -13.22916665,13.22917 13.229166,13.229166 0 0 0 13.22916665,13.22916 13.229166,13.229166 0 0 0 12.479858,-8.88628 9.6383921,7.5358997 0 0 1 -9.550321,-7.53184 9.6383921,7.5358997 0 0 1 5.669938,-6.85746 13.229166,13.229166 0 0 0 -8.599475,-3.18275 z m -1.889807,2.55127 a 2.2206101,2.2206101 0 0 1 2.220536,2.22053 2.2206101,2.2206101 0 0 1 -2.220536,2.22054 2.2206101,2.2206101 0 0 1 -2.2205365,-2.22054 2.2206101,2.2206101 0 0 1 2.2205365,-2.22053 z"
       id="path10"
       inkscape:connector-curvature="0" />
  </g>
</svg>
